<svg xmlns="http://www.w3.org/2000/svg" viewBox="0 0 24 24" fill="currentColor">
  <path d="M12 2C6.48 2 2 6.15 2 11.26c0 2.02.66 3.9 1.78 5.44L2 22l5.5-1.71c1.46.79 3.14 1.24 4.5 1.24 5.52 0 10-4.15 10-9.26S17.52 2 12 2zm0 17.76c-1.22 0-2.88-.48-4.06-1.19l-.29-.17-3.27 1.02 1.07-3.05-.2-.31A7.2 7.2 0 0 1 4.2 11.26c0-3.97 3.51-7.2 7.8-7.2s7.8 3.23 7.8 7.2-3.51 7.3-7.8 7.3zm4.14-5.46c-.23-.11-1.35-.66-1.56-.74-.21-.07-.36-.11-.51.11-.15.22-.59.74-.72.89-.13.15-.26.17-.49.06-.23-.11-.97-.35-1.85-1.13-.68-.6-1.14-1.35-1.28-1.58-.13-.22-.01-.34.1-.45.1-.1.23-.26.35-.39.12-.13.15-.22.23-.37.08-.15.04-.28-.02-.39-.06-.11-.51-1.17-.7-1.6-.18-.43-.37-.37-.51-.38h-.44c-.15 0-.39.06-.59.28-.2.22-.77.74-.77 1.8s.79 2.09.9 2.23c.11.15 1.55 2.32 3.76 3.25.53.22.94.35 1.26.45.53.17 1.01.15 1.39.09.42-.06 1.35-.54 1.54-1.06.19-.52.19-.97.13-1.06-.05-.09-.2-.15-.42-.26z"/>
</svg>
